<?xml version="1.0" encoding="UTF-8" standalone="no"?>
<!-- Uploaded to: SVG Repo, www.svgrepo.com, Generator: SVG Repo Mixer Tools -->

<svg
   width="800"
   height="800"
   viewBox="0 0 24 24"
   version="1.1"
   id="svg1"
   xmlns="http://www.w3.org/2000/svg"
   xmlns:svg="http://www.w3.org/2000/svg">
  <defs
     id="defs1" />
  <title
     id="title1">triangle_fill</title>
  <path
     d="m 12,2.3977148 c -0.505187,2.5e-6 -1.010382,0.25 -1.299082,0.75 L 2.0669531,18.102187 c -0.57735,1 0.1443821,2.25 1.2990821,2.25 H 20.634023 c 1.1547,0 1.876265,-1.25 1.298965,-2.25 L 13.299023,3.1477148 c -0.28865,-0.5 -0.793835,-0.7500025 -1.299023,-0.75 z m 0,7.5620508 c 0.247567,0 0.446895,0.1993274 0.446895,0.4468944 v 3.004043 h 3.004043 c 0.247566,0 0.446835,0.199328 0.446835,0.446895 0,0.247567 -0.199269,0.446836 -0.446835,0.446836 h -3.004043 v 3.004101 c 0,0.247567 -0.199328,0.446836 -0.446895,0.446836 -0.247567,0 -0.446895,-0.199269 -0.446895,-0.446836 V 14.304434 H 8.5490625 c -0.2475669,0 -0.4468359,-0.199269 -0.4468359,-0.446836 0,-0.247567 0.199269,-0.446895 0.4468359,-0.446895 H 11.553105 V 10.40666 c 0,-0.247567 0.199328,-0.4468944 0.446895,-0.4468944 z"
     style="fill:#cbd5e1"
     id="path16" />
  <rect
     style="opacity:0;fill:#000000;fill-opacity:1;stroke:#ffffff;stroke-width:0.0415975;stroke-opacity:0"
     id="rect2"
     width="1.1772573"
     height="7.7902598"
     x="11.374219"
     y="9.9624548" />
  <rect
     style="opacity:0;fill:#000000;fill-opacity:1;stroke:#ffffff;stroke-width:0.0415975;stroke-opacity:1"
     id="rect3"
     width="1.1772573"
     height="7.7902598"
     x="-14.446214"
     y="8.0677176"
     transform="rotate(-90)" />
</svg>
